<?xml version="1.0" encoding="UTF-8" standalone="no"?>
<svg width="20px" height="20px" viewBox="0 0 20 20" version="1.1" xmlns="http://www.w3.org/2000/svg" xmlns:xlink="http://www.w3.org/1999/xlink">
    <!-- Generator: sketchtool 3.7.2 (28276) - http://www.bohemiancoding.com/sketch -->
    <title>34C7EF07-8190-44A0-8BE8-23C9F2BBC1FD</title>
    <desc>Created with sketchtool.</desc>
    <defs></defs>
    <g id="0-Style-Guide" stroke="none" stroke-width="1" fill="none" fill-rule="evenodd">
        <g id="0.0.0_Assets" transform="translate(-85.000000, -557.000000)">
            <g id="social-accounts---hover/highlighted" transform="translate(50.000000, 557.000000)">
                <g id="icon_social_twitter_highlighted" transform="translate(35.000000, 0.000000)">
                    <path d="M10,20 C4.47716378,20 0,15.5228362 0,10 C0,4.47716378 4.47716378,0 10,0 C15.5228362,0 20,4.47716378 20,10 C20,15.5228362 15.5228362,20 10,20 Z" id="Twitter-Circle" fill="#24A9E6"></path>
                    <path d="M15.2241876,6.15525407 C14.8274237,6.39795627 14.3890076,6.57446696 13.9204203,6.66891094 C13.5471524,6.25723204 13.0136838,6 12.4230769,6 C11.2909914,6 10.3722399,6.94928311 10.3722399,8.12001179 C10.3722399,8.2860287 10.389862,8.44747141 10.4251061,8.60272548 C8.72003578,8.51420106 7.20854137,7.67120107 6.19607241,6.38692435 C6.01931754,6.70119948 5.91839105,7.06579092 5.91839105,7.45379156 C5.91839105,8.18916308 6.28044482,8.83816275 6.83126852,9.21836032 C6.49538088,9.20813562 6.17845032,9.11180814 5.90130297,8.95386336 L5.90130297,8.97996326 C5.90130297,10.0075461 6.60858943,10.8648068 7.54790003,11.0588072 C7.37595119,11.1085853 7.1943903,11.1333399 7.00722239,11.1333399 C6.87505674,11.1333399 6.74609511,11.1206935 6.62113849,11.095939 C6.88226577,11.9378627 7.63948148,12.5510759 8.53740688,12.5672202 C7.83546044,13.1363057 6.95035111,13.4753354 5.9894134,13.4753354 C5.82387259,13.4753354 5.66020078,13.4656488 5.5,13.4462757 C6.40780445,14.0468426 7.48675674,14.3979804 8.64500841,14.3979804 C12.4190719,14.3979804 14.482191,11.1680501 14.482191,8.36621191 C14.482191,8.2739205 14.480589,8.18189816 14.477118,8.09149024 C14.877887,7.7922831 15.2260567,7.41935045 15.5,6.99421799 C15.1326062,7.16265655 14.7369103,7.27674273 14.3219902,7.32786625 C14.7457213,7.06579092 15.0709289,6.65007596 15.2241876,6.15525407" id="Twitter" fill="#FFFFFF"></path>
                </g>
            </g>
        </g>
    </g>
</svg>