<svg xmlns="http://www.w3.org/2000/svg" xmlns:xlink="http://www.w3.org/1999/xlink" width="48" height="48" viewBox="0 0 48 48">
    <defs>
        <path id="a" d="M8.29 9.132l-1.912 1.376a3.5 3.5 0 1 1-1.674-1.295L6.56 8 4.704 6.787a3.5 3.5 0 1 1 1.674-1.295L8.29 6.868l7.871-5.146a.5.5 0 0 1 .627.065l.297.297a.5.5 0 0 1-.061.76L9.86 8l7.162 5.156a.5.5 0 0 1 .061.76l-.297.297a.5.5 0 0 1-.627.065L8.29 9.132zM3.5 5.25a1.75 1.75 0 1 0 0-3.5 1.75 1.75 0 0 0 0 3.5zm0 9a1.75 1.75 0 1 0 0-3.5 1.75 1.75 0 0 0 0 3.5z"/>
    </defs>
    <g fill="none" fill-rule="evenodd">
        <rect width="48" height="48" fill="#FE5000" rx="24"/>
        <rect width="40" height="40" x="4" y="4" stroke="#F8F8F9" stroke-dasharray="3" stroke-linecap="round" stroke-linejoin="round" rx="20"/>
        <use fill="#FFF" fill-rule="nonzero" transform="translate(16 16)" xlink:href="#a"/>
    </g>
</svg>
