<?xml version="1.0" encoding="UTF-8" standalone="no"?>
<svg width="26px" height="25px" viewBox="0 0 26 25" version="1.1" xmlns="http://www.w3.org/2000/svg" xmlns:xlink="http://www.w3.org/1999/xlink">
    <!-- Generator: sketchtool 41.2 (35397) - http://www.bohemiancoding.com/sketch -->
    <title>CF414776-4C6F-4F2B-803B-4DD0F067055B</title>
    <desc>Created with sketchtool.</desc>
    <defs></defs>
    <g id="0-Style-Guide" stroke="none" stroke-width="1" fill="none" fill-rule="evenodd">
        <g id="0.0.0_Assets" transform="translate(-50.000000, -443.000000)">
            <g id="social-accounts_highlighted" transform="translate(50.000000, 443.000000)">
                <g id="icon_social_facebook">
                    <path d="M12.5016463,0 C5.59726063,0 0,5.59726063 0,12.5016463 C0,19.4027394 5.59726063,25 12.5016463,25 C19.4027394,25 25,19.4027394 25,12.5016463 C25,5.59726063 19.4027394,0 12.5016463,0 L12.5016463,0 Z" id="Facebook" fill="#43619C"></path>
                    <path d="M18.925848,17.5625 C18.925848,17.9309211 18.7441228,18.1710526 18.3773684,18.1710526 L15.291345,18.1710526 L15.291345,13.5657895 L16.8607895,13.5657895 L17.0986842,11.5921053 L15.291345,11.5921053 L15.291345,10.5657895 C15.291345,10.0394737 15.4334211,9.61842105 16.1933626,9.61842105 L17.2738012,9.61842105 L17.2738012,8.04934211 C16.9433918,8.02631579 16.4312573,7.97697368 15.7605263,7.97697368 C14.3661988,7.97697368 13.3088889,8.82565789 13.3088889,10.3848684 L13.3088889,11.5921053 L11.6568421,11.5921053 L11.6568421,13.5657895 L13.3088889,13.5657895 L13.3088889,18.1710526 L7.58619883,18.1710526 C7.21614035,18.1710526 7.03111111,17.9309211 7.03111111,17.5625 L7.03111111,6.81907895 C7.03111111,6.45065789 7.21614035,6 7.58619883,6 L18.3773684,6 C18.7441228,6 18.925848,6.45065789 18.925848,6.81907895 L18.925848,17.5625 L18.925848,17.5625 Z" id="Path" fill="#FFFFFF"></path>
                </g>
            </g>
        </g>
    </g>
</svg>