<svg xmlns="http://www.w3.org/2000/svg" xmlns:xlink="http://www.w3.org/1999/xlink" width="14" height="12">
    <defs>
        <path id="a" d="m10.625,7l-10.125,0a0.5,0.5 0 0 1 -0.5,-0.5l0,-1a0.5,0.5 0 0 1 0.5,-0.5l10.125,0l-2.317,-2.648a0.5,0.5 0 0 1 0.023,-0.683l0.779,-0.778a0.5,0.5 0 0 1 0.74,0.037l3.891,4.755a0.5,0.5 0 0 1 0,0.634l-3.891,4.755a0.5,0.5 0 0 1 -0.74,0.037l-0.78,-0.778a0.5,0.5 0 0 1 -0.022,-0.683l2.317,-2.648z" />
    </defs>
    <use fill="#FFF" fill-rule="nonzero" x="0.250198" y="0.000226" xlink:href="#a" />
</svg>